<svg version="1.1" xmlns="http://www.w3.org/2000/svg" xmlns:xlink="http://www.w3.org/1999/xlink" x="0px" y="0px" viewBox="0 0 256 256" enable-background="new 0 0 256 256" xml:space="preserve">
<metadata> Svg Vector Icons : http://www.onlinewebfonts.com/icon </metadata>
<g><g><path fill="#000000" d="M242.2,114.3l-89.1,89.1l-4.6,4.6l-34.3,34.3c-5.1,5.1-13.2,5-18.3,0l-9.1-9.2l-9.1-9.2l-9.2-9.1c7.6-7.6,7.6-19.9,0-27.4s-19.8-7.6-27.4,0l-9.2-9.1l-9.1-9.2l-9.1-9.2c-5.1-5.1-5.1-13.2,0-18.3L48,107.4l4.6-4.6l89.1-89.1c5.1-5.1,13.2-5.1,18.3,0l13.7,13.7l4.6,4.6l9.1,9.2c-7.6,7.6-7.6,19.8,0,27.4c7.6,7.6,19.8,7.6,27.4,0l9.1,9.2l13.7,13.7l4.6,4.6C247.3,101.1,247.3,109.2,242.2,114.3L242.2,114.3L242.2,114.3z M212.9,85c-11.6,4.5-25.3,2.1-34.6-7.2c-9.4-9.4-11.8-23-7.2-34.6l-15.6-15.6c-2.5-2.5-6.6-2.5-9.2,0L64,109.7l6.9,6.9c1.3,1.3,1.3,3.3,0,4.6l-4.6,4.6c-1.3,1.3-3.3,1.3-4.6,0l-6.9-6.9l-27.4,27.4c-2.5,2.5-2.5,6.6,0,9.2l15.6,15.6c11.6-4.5,25.3-2.1,34.6,7.2c9.4,9.4,11.7,23,7.2,34.6l15.6,15.7c2.5,2.5,6.6,2.5,9.1,0l27.4-27.4l-6.9-6.9c-1.3-1.3-1.3-3.3,0-4.6l4.6-4.6c1.3-1.3,3.3-1.3,4.6,0l6.9,6.8l82.2-82.2c2.5-2.5,2.5-6.6,0-9.1L212.9,85L212.9,85L212.9,85z M125.7,176l-4.6,4.6c-1.3,1.3-3.3,1.3-4.6,0l-13.7-13.7c-1.3-1.3-1.3-3.3,0-4.6l4.6-4.6c1.3-1.3,3.3-1.3,4.6,0l13.7,13.7C127,172.7,127,174.7,125.7,176L125.7,176L125.7,176z M98.3,148.6l-4.6,4.6c-1.3,1.3-3.3,1.3-4.6,0l-13.7-13.7c-1.3-1.3-1.3-3.3,0-4.6l4.6-4.6c1.3-1.3,3.3-1.3,4.6,0L98.3,144C99.6,145.2,99.6,147.3,98.3,148.6L98.3,148.6L98.3,148.6z"/></g></g>
</svg>








